<?xml version="1.0" encoding="UTF-8"?>
<svg width="9px" height="10px" viewBox="0 0 9 10" version="1.1" xmlns="http://www.w3.org/2000/svg" xmlns:xlink="http://www.w3.org/1999/xlink">
    <!-- Generator: Sketch 54 (76480) - https://sketchapp.com -->
    <title>Icon/arrow-down Copy</title>
    <desc>Created with Sketch.</desc>
    <defs>
        <path d="M4.77777778,8.10321469 L7.16271845,5.71827401 C7.37967639,5.50131607 7.73143472,5.50131607 7.94839266,5.71827401 C8.1653506,5.93523195 8.1653506,6.28699027 7.94839266,6.50394821 L4.61505932,9.83728155 C4.39810138,10.0542395 4.04634306,10.0542395 3.82938512,9.83728155 L0.496051788,6.50394821 C0.279093848,6.28699027 0.279093848,5.93523195 0.496051788,5.71827401 C0.713009728,5.50131607 1.06476805,5.50131607 1.28172599,5.71827401 L3.66666667,8.10321469 L3.66666667,0.555555556 C3.66666667,0.248730695 3.91539736,0 4.22222222,0 C4.52904708,0 4.77777778,0.248730695 4.77777778,0.555555556 L4.77777778,8.10321469 Z" id="path-1"></path>
    </defs>
    <g id="Page-1" stroke="none" stroke-width="1" fill="none" fill-rule="evenodd">
        <g id="Initial-View---Desktop-HD" transform="translate(-1391.000000, -49.000000)">
            <g id="Icon/arrow-down-Copy" transform="translate(1391.000000, 49.000000)">
                <mask id="mask-2" fill="white">
                    <use xlink:href="#path-1"></use>
                </mask>
                <use id="Combined-Shape" fill="#0079FC" fill-rule="nonzero" xlink:href="#path-1"></use>
            </g>
        </g>
    </g>
</svg>