<?xml version="1.0" encoding="UTF-8"?>
<svg width="12px" height="10px" viewBox="0 0 12 10" version="1.1" xmlns="http://www.w3.org/2000/svg" xmlns:xlink="http://www.w3.org/1999/xlink">
    <!-- Generator: Sketch 54 (76480) - https://sketchapp.com -->
    <title>Icon/arrow-left</title>
    <desc>Created with Sketch.</desc>
    <defs>
        <path d="M2.27614237,5.66666667 L5.13807119,8.52859548 C5.39842072,8.78894501 5.39842072,9.21105499 5.13807119,9.47140452 C4.87772166,9.73175405 4.45561167,9.73175405 4.19526215,9.47140452 L0.195262146,5.47140452 C-0.065087382,5.21105499 -0.065087382,4.78894501 0.195262146,4.52859548 L4.19526215,0.528595479 C4.45561167,0.268245951 4.87772166,0.268245951 5.13807119,0.528595479 C5.39842072,0.788945007 5.39842072,1.21105499 5.13807119,1.47140452 L2.27614237,4.33333333 L11.3333333,4.33333333 C11.7015232,4.33333333 12,4.63181017 12,5 C12,5.36818983 11.7015232,5.66666667 11.3333333,5.66666667 L2.27614237,5.66666667 Z" id="path-1"></path>
    </defs>
    <g id="Page-1" stroke="none" stroke-width="1" fill="none" fill-rule="evenodd">
        <g id="Initial-View---Desktop-HD" transform="translate(-44.000000, -49.000000)">
            <g id="Icon/arrow-left" transform="translate(44.000000, 49.000000)">
                <mask id="mask-2" fill="white">
                    <use xlink:href="#path-1"></use>
                </mask>
                <use id="Combined-Shape" fill="#0079FC" fill-rule="nonzero" xlink:href="#path-1"></use>
            </g>
        </g>
    </g>
</svg>